<svg xmlns="http://www.w3.org/2000/svg" aria-hidden="true" style="position:absolute;width:0;height:0;overflow:hidden">
  <defs>
    <symbol id="icon-menu-hamburger" viewBox="0 0 32 32">
<path d="M2.667 7.993c0-0.733 0.595-1.327 1.327-1.327h10.68c0.352 0 0.689 0.14 0.938 0.389s0.389 0.586 0.389 0.938c0 0.352-0.14 0.689-0.389 0.938s-0.586 0.389-0.938 0.389h-10.68c-0.352 0-0.689-0.14-0.938-0.389s-0.389-0.586-0.389-0.938zM2.667 16c0-0.733 0.595-1.327 1.327-1.327h24.013c0.352 0 0.689 0.14 0.938 0.389s0.389 0.586 0.389 0.938c0 0.352-0.14 0.689-0.389 0.938s-0.586 0.389-0.938 0.389h-24.013c-0.352 0-0.689-0.14-0.938-0.389s-0.389-0.586-0.389-0.938zM3.993 22.68c-0.352 0-0.689 0.14-0.938 0.389s-0.389 0.586-0.389 0.938c0 0.352 0.14 0.689 0.389 0.938s0.586 0.389 0.938 0.389h16.013c0.352 0 0.689-0.14 0.938-0.389s0.389-0.586 0.389-0.938c0-0.352-0.14-0.689-0.389-0.938s-0.586-0.389-0.938-0.389h-16.013z"></path>    <symbol id="icon-logo" viewBox="0 0 32 32">
      <path d="M12.188.537c-.313.063-.787.237-1 .369-.269.169-.787.719-.887.938-.088.194-.119.194-.3 0a1.009 1.009 0 0 0-.369-.219c-.363-.1-1.006-.075-1.294.056-.519.238-.906.913-.806 1.419.037.206.031.225-.075.181-.737-.306-1.469-.056-1.8.625-.138.281-.169.406-.144.675l.025.325h-.469c-.725.006-1.206.325-1.444.95-.237.631-.131 1.325.275 1.894l.225.313h-.362c-.669.006-1.169.387-1.45 1.113-.188.494-.219.944-.1 1.606.138.756.125 1.556-.025 2.4-.337 1.875-.013 4.056.844 5.662.831 1.569 1.112 2.831 1.219 5.438.081 2.044.306 3.075.95 4.375.444.887 1.019 1.525 1.806 1.988 1.213.712 2.975.8 4.419.212 1.9-.762 2.756-2.256 2.769-4.794.006-1.1-.075-1.681-.444-3.281-.319-1.4-.438-2.325-.438-3.5 0-1.75.194-2.719.925-4.662.6-1.588.813-2.269.95-3.1.162-.931.162-1.731 0-2.356-.162-.644-.381-1.025-.894-1.575l-.425-.456.306-.531c.469-.813.706-1.606.744-2.444.081-1.756-.531-3.05-1.637-3.481-.275-.113-.85-.181-1.094-.137zm.943 1.482c.7.475 1.1 1.675 1.031 3.106-.037.713-.069.919-.269 1.675l-.1.388-.194-.131c-.744-.494-1.65-.775-2.35-.725-1.375.1-2.563.906-4.075 2.787l-.638.787.975-.944c1.35-1.319 2.137-1.85 3.031-2.063 1.025-.244 2.275.188 3.206 1.094.806.787 1.05 1.856.75 3.306-.156.781-.369 1.4-.95 2.794-.569 1.35-.631 1.531-.869 2.494-.531 2.188-.469 4.169.225 7.225.25 1.106.363 2.231.281 2.925-.088.806-.162 1.087-.444 1.675-.169.369-.325.587-.55.788-.375.344-1.05.7-1.537.831-.525.131-1.431.181-1.875.1-1.256-.238-2.275-1.294-2.806-2.913-.269-.819-.35-1.363-.444-2.875-.175-2.75-.45-3.837-1.406-5.6-.981-1.819-1.394-3.425-1.275-4.994.094-1.344.063-2.344-.1-2.906-.294-1.006-.212-1.738.244-2.219.725-.763 1.925-.162 1.8.906-.037.35.019.325.081-.031s-.031-.738-.269-1.031c-.213-.262-.35-.825-.356-1.438 0-.706.331-1.219.794-1.219.494 0 .719.475.662 1.388l-.025.456.131-.156c.338-.406.537-1.025.475-1.469a1.712 1.712 0 0 0-.263-.6c-.231-.344-.263-.531-.125-.794.331-.638 1.156-.719 1.669-.156.287.306.381.575.419 1.169l.031.563.181-.213c.206-.25.363-.719.363-1.094 0-.4-.169-.813-.475-1.15-.3-.337-.3-.362-.031-.775.363-.563 1.137-.619 1.637-.119.213.219.225.263.269.731.05.619.156 1.025.381 1.469.175.35.713 1.15.75 1.112.012-.013-.031-.256-.1-.55-.169-.756-.213-1.537-.125-2.013.144-.725.625-1.406 1.162-1.65.306-.137.85-.113 1.1.056zM18.938.844c-.65.181-1.119.587-1.456 1.256-.244.481-.356.988-.4 1.775-.056 1.131.181 2.069.8 3.081.275.469.281.481.144.481-.15 0-.781.675-.981 1.044-.375.7-.506 1.744-.35 2.787.144.963.319 1.537 1.375 4.525.381 1.069.494 1.738.538 3.144.05 1.631-.075 2.663-.55 4.594-.419 1.7-.469 3.144-.156 4.369.206.794.431 1.269.869 1.825.725.925 1.531 1.35 2.925 1.556.925.131 1.381.119 2.081-.056 1.663-.425 2.738-1.538 3.4-3.512.325-.969.45-1.788.512-3.344.1-2.469.425-3.956 1.15-5.275.306-.55.631-1.4.856-2.25.194-.712.2-.806.194-1.781 0-.569-.05-1.338-.1-1.713-.113-.769-.125-1.563-.038-2.162.113-.794.094-1.5-.056-1.881-.275-.725-.788-1.119-1.444-1.119h-.381l.2-.294c.431-.619.525-1.156.325-1.856a1.323 1.323 0 0 0-.894-.944c-.306-.1-.7-.106-.938-.006-.081.031-.094-.037-.094-.425 0-.425-.019-.481-.194-.706a1.777 1.777 0 0 0-.456-.381c-.344-.194-.913-.25-1.169-.119l-.188.094-.006-.319c-.006-.619-.3-1.056-.85-1.294-.556-.244-1.269-.15-1.663.206-.106.1-.156.112-.175.056-.069-.181-.519-.712-.781-.919-.544-.425-1.413-.613-2.05-.438zM20.1 2.006c.35.163.619.481.863.994.181.388.194.444.194 1.156 0 .656-.106 1.394-.262 1.9-.05.156.337-.306.575-.688.35-.563.538-1.138.575-1.763.031-.469.063-.587.194-.737.294-.35.688-.45 1.144-.294.35.112.538.281.706.619l.156.325-.269.3c-.587.656-.631 1.625-.1 2.25l.181.213.006-.444c0-.644.131-1.019.456-1.319.6-.55 1.194-.494 1.587.156.188.3.181.481-.012.688-.219.231-.369.769-.319 1.125.044.313.269.831.469 1.075l.125.156-.006-.625c-.006-.894.163-1.219.631-1.219.481 0 .813.475.819 1.163 0 .625-.113 1.088-.356 1.438-.256.381-.344.719-.269 1.044.075.344.119.35.081.012-.125-1.069 1.075-1.669 1.8-.906.462.488.587 1.419.337 2.469-.125.512-.131.713-.087 3.344.019.912.006 1.012-.181 1.719-.275 1.05-.444 1.469-1.081 2.7-.931 1.788-1.212 2.881-1.4 5.425-.188 2.656-.6 3.988-1.544 5-.875.938-1.925 1.219-3.406.913-1.394-.288-2.275-1.144-2.625-2.544-.081-.325-.106-.688-.106-1.462.006-1.006.012-1.063.331-2.481.387-1.769.506-2.719.506-4.113 0-2.038-.206-2.994-1.156-5.344-.831-2.056-1.094-3.006-1.094-3.95 0-.619.087-.963.419-1.675.288-.606.494-.844 1.106-1.237 1.137-.725 1.938-.787 3.131-.237.706.325 1.2.706 2.275 1.756l.969.938-.637-.794c-1.813-2.244-3.4-3.106-4.975-2.7-.419.106-1.188.444-1.469.644l-.181.131-.1-.3c-.587-1.763-.206-4.156.769-4.806.288-.194.856-.2 1.231-.013z"/>
    </symbol>
  </defs>
</svg>
